<!DOCTYPE svg PUBLIC "-//W3C//DTD SVG 20010904//EN" "http://www.w3.org/TR/2001/REC-SVG-20010904/DTD/svg10.dtd">
<svg version="1.0" xmlns="http://www.w3.org/2000/svg" width="200px" height="200px" viewBox="0 0 2000 2000" preserveAspectRatio="xMidYMid meet">
<g id="layer101" fill="#000000" stroke="none">
 <path d="M910 1900 c-301 -29 -578 -219 -715 -490 -18 -36 -46 -106 -61 -155 -27 -84 -29 -101 -28 -255 0 -151 2 -173 28 -255 92 -302 322 -527 628 -616 104 -30 297 -37 407 -15 176 36 319 108 443 225 172 161 267 352 287 580 51 569 -420 1036 -989 981z m325 -100 c93 -29 206 -89 280 -147 l60 -48 -42 -6 c-51 -6 -51 -7 -59 -47 -6 -29 -4 -32 19 -32 16 0 26 7 30 20 5 20 37 29 37 11 0 -6 -18 -30 -39 -55 -50 -57 -57 -80 -37 -111 36 -54 118 -39 124 23 3 29 0 32 -22 32 -19 0 -26 -5 -26 -19 0 -25 -18 -37 -26 -17 -4 10 9 33 34 62 23 25 42 58 44 72 3 25 6 23 52 -38 56 -74 117 -197 141 -285 25 -90 30 -283 11 -374 -35 -167 -111 -306 -233 -428 l-68 -68 -3 463 -2 462 -130 0 -130 0 2 -467 3 -468 115 -5 c131 -6 131 -4 -7 -74 -123 -62 -208 -80 -363 -80 -162 0 -223 14 -365 84 -169 84 -291 206 -375 375 -61 124 -79 191 -87 325 -7 124 11 231 58 350 31 77 119 218 161 257 l24 23 29 -145 29 -145 33 0 c26 0 34 5 38 23 12 54 55 263 55 270 0 4 -13 7 -29 7 -23 0 -30 -5 -33 -22 -4 -33 -55 -38 -60 -6 -2 14 -12 24 -28 28 -23 5 -20 9 45 59 89 67 207 125 310 151 111 28 327 23 430 -10z m-716 -337 c-10 -50 -19 -68 -19 -36 0 11 -3 35 -6 52 -6 26 -4 31 13 31 19 0 20 -4 12 -47z"/>
 <path d="M620 1520 l0 -161 33 1 c17 1 43 -2 57 -5 19 -5 31 -1 45 15 17 18 20 37 20 110 0 100 -10 120 -61 120 -33 0 -34 1 -34 40 0 38 -2 40 -30 40 l-30 0 0 -160z m95 -40 c0 -63 -3 -75 -17 -78 -16 -3 -18 6 -18 78 0 72 2 81 18 78 14 -3 17 -15 17 -78z"/>
 <path d="M810 1520 l0 -161 33 1 c17 1 43 -2 57 -5 19 -5 31 -1 45 15 17 18 20 37 20 110 0 100 -10 120 -61 120 -33 0 -34 1 -34 40 0 38 -2 40 -30 40 l-30 0 0 -160z m98 -34 c3 -66 -9 -103 -29 -90 -5 3 -9 41 -9 85 0 71 2 80 18 77 14 -3 18 -16 20 -72z"/>
 <path d="M1000 1450 l0 -150 30 0 c29 0 30 1 31 53 l1 52 24 -52 c22 -46 29 -53 55 -53 16 0 29 2 29 4 0 2 -14 34 -31 70 l-31 67 35 80 36 79 -33 0 c-32 0 -35 -3 -59 -62 l-26 -63 -1 63 0 62 -30 0 -30 0 0 -150z"/>
 <path d="M1190 1480 l0 -120 30 0 30 0 0 120 0 120 -30 0 -30 0 0 -120z"/>
 <path d="M1300 1580 c-5 -10 -10 -57 -10 -104 0 -74 3 -89 21 -107 14 -14 29 -19 45 -16 22 4 24 1 24 -34 0 -37 2 -39 30 -39 l30 0 0 159 0 159 -65 1 c-54 0 -66 -3 -75 -19z m80 -99 c0 -83 -13 -111 -30 -66 -20 51 -9 145 16 145 11 0 14 -18 14 -79z"/>
 <path d="M1201 1321 c-8 -5 -12 -18 -8 -30 5 -19 1 -20 -97 -23 l-101 -3 -5 -95 c-6 -108 -17 -132 -72 -161 -45 -23 -89 -24 -134 -3 -59 28 -76 64 -82 170 l-5 94 -103 0 -104 0 0 -215 0 -215 25 0 25 0 0 -170 0 -170 -25 0 c-47 0 -25 -27 81 -100 l106 -72 109 73 c109 74 130 99 84 99 l-25 0 0 170 0 170 35 0 35 0 2 -252 3 -253 108 -3 107 -3 0 256 0 255 25 0 25 0 0 215 c0 209 1 215 20 215 25 0 36 25 20 45 -14 17 -29 19 -49 6z"/>
 </g>
<g id="layer102" fill="#0e663a" stroke="none">
 <path d="M620 1520 l0 -161 33 1 c17 1 43 -2 57 -5 19 -5 31 -1 45 15 17 18 20 37 20 110 0 100 -10 120 -61 120 -33 0 -34 1 -34 40 0 38 -2 40 -30 40 l-30 0 0 -160z m95 -40 c0 -63 -3 -75 -17 -78 -16 -3 -18 6 -18 78 0 72 2 81 18 78 14 -3 17 -15 17 -78z"/>
 <path d="M810 1520 l0 -161 33 1 c17 1 43 -2 57 -5 19 -5 31 -1 45 15 17 18 20 37 20 110 0 100 -10 120 -61 120 -33 0 -34 1 -34 40 0 38 -2 40 -30 40 l-30 0 0 -160z m98 -34 c3 -66 -9 -103 -29 -90 -5 3 -9 41 -9 85 0 71 2 80 18 77 14 -3 18 -16 20 -72z"/>
 <path d="M444 1451 l31 -151 32 0 c26 0 34 5 38 23 12 54 55 263 55 270 0 4 -13 7 -29 7 -23 0 -30 -5 -33 -22 -5 -34 -55 -38 -60 -6 -2 18 -10 24 -34 26 l-31 3 31 -150z m75 12 c-10 -50 -19 -68 -19 -36 0 11 -3 35 -6 52 -6 26 -4 31 13 31 19 0 20 -4 12 -47z"/>
 <path d="M1000 1450 l0 -150 30 0 c29 0 30 1 31 53 l1 52 24 -52 c22 -46 29 -53 55 -53 16 0 29 2 29 4 0 2 -14 34 -31 70 l-31 67 35 80 36 79 -33 0 c-32 0 -35 -3 -59 -62 l-26 -63 -1 63 0 62 -30 0 -30 0 0 -150z"/>
 <path d="M1190 1480 l0 -120 30 0 30 0 0 120 0 120 -30 0 -30 0 0 -120z"/>
 <path d="M1300 1580 c-5 -10 -10 -57 -10 -104 0 -74 3 -89 21 -107 14 -14 29 -19 45 -16 22 4 24 1 24 -34 0 -37 2 -39 30 -39 l30 0 0 159 0 159 -65 1 c-54 0 -66 -3 -75 -19z m80 -99 c0 -83 -13 -111 -30 -66 -20 51 -9 145 16 145 11 0 14 -18 14 -79z"/>
 <path d="M1493 1592 c-7 -4 -16 -22 -19 -40 -6 -29 -4 -32 19 -32 16 0 26 7 30 20 5 20 37 29 37 11 0 -6 -18 -30 -39 -55 -50 -57 -57 -80 -37 -111 36 -54 118 -39 124 23 3 29 0 32 -22 32 -19 0 -26 -5 -26 -19 0 -25 -18 -37 -26 -17 -4 10 9 33 35 62 47 54 56 105 22 124 -23 12 -81 13 -98 2z"/>
 <path d="M1202 1321 c-23 -14 -10 -46 21 -49 31 -4 46 20 27 43 -14 17 -29 19 -48 6z"/>
 <path d="M1255 800 c0 -250 1 -353 2 -228 2 126 2 330 0 455 -1 126 -2 23 -2 -227z"/>
 <path d="M1270 805 l0 -445 110 0 110 0 -2 443 -3 442 -107 3 -108 3 0 -446z"/>
 <path d="M520 1050 l0 -190 330 0 330 0 0 190 0 190 -80 0 -80 0 0 -74 c0 -77 -16 -130 -47 -158 -23 -20 -89 -48 -116 -48 -43 0 -102 26 -139 61 l-38 36 0 91 0 92 -80 0 -80 0 0 -190z"/>
 <path d="M970 605 l0 -245 85 0 85 0 0 245 0 245 -85 0 -85 0 0 -245z"/>
 <path d="M570 665 l0 -175 135 0 135 0 0 175 0 175 -135 0 -135 0 0 -175z"/>
 <path d="M550 471 c0 -10 140 -104 155 -104 5 0 43 23 83 50 53 37 68 52 56 57 -24 9 -294 7 -294 -3z"/>
 </g>
<g id="layer103" fill="#603e12" stroke="none">
 <path d="M620 1520 l0 -161 33 1 c17 1 43 -2 57 -5 19 -5 31 -1 45 15 17 18 20 37 20 110 0 100 -10 120 -61 120 -33 0 -34 1 -34 40 0 38 -2 40 -30 40 l-30 0 0 -160z m95 -40 c0 -63 -3 -75 -17 -78 -16 -3 -18 6 -18 78 0 72 2 81 18 78 14 -3 17 -15 17 -78z"/>
 <path d="M810 1520 l0 -161 33 1 c17 1 43 -2 57 -5 19 -5 31 -1 45 15 17 18 20 37 20 110 0 100 -10 120 -61 120 -33 0 -34 1 -34 40 0 38 -2 40 -30 40 l-30 0 0 -160z m98 -34 c3 -66 -9 -103 -29 -90 -5 3 -9 41 -9 85 0 71 2 80 18 77 14 -3 18 -16 20 -72z"/>
 <path d="M444 1451 l31 -151 32 0 c26 0 34 5 38 23 12 54 55 263 55 270 0 4 -13 7 -29 7 -23 0 -30 -5 -33 -22 -5 -34 -55 -38 -60 -6 -2 18 -10 24 -34 26 l-31 3 31 -150z m75 12 c-10 -50 -19 -68 -19 -36 0 11 -3 35 -6 52 -6 26 -4 31 13 31 19 0 20 -4 12 -47z"/>
 <path d="M1000 1450 l0 -150 30 0 c29 0 30 1 31 53 l1 52 24 -52 c22 -46 29 -53 55 -53 16 0 29 2 29 4 0 2 -14 34 -31 70 l-31 67 35 80 36 79 -33 0 c-32 0 -35 -3 -59 -62 l-26 -63 -1 63 0 62 -30 0 -30 0 0 -150z"/>
 <path d="M1190 1480 l0 -120 30 0 30 0 0 120 0 120 -30 0 -30 0 0 -120z"/>
 <path d="M1300 1580 c-5 -10 -10 -57 -10 -104 0 -74 3 -89 21 -107 14 -14 29 -19 45 -16 22 4 24 1 24 -34 0 -37 2 -39 30 -39 l30 0 0 159 0 159 -65 1 c-54 0 -66 -3 -75 -19z m80 -99 c0 -83 -13 -111 -30 -66 -20 51 -9 145 16 145 11 0 14 -18 14 -79z"/>
 <path d="M1493 1592 c-7 -4 -16 -22 -19 -40 -6 -29 -4 -32 19 -32 16 0 26 7 30 20 5 20 37 29 37 11 0 -6 -18 -30 -39 -55 -50 -57 -57 -80 -37 -111 36 -54 118 -39 124 23 3 29 0 32 -22 32 -19 0 -26 -5 -26 -19 0 -25 -18 -37 -26 -17 -4 10 9 33 35 62 47 54 56 105 22 124 -23 12 -81 13 -98 2z"/>
 <path d="M1202 1321 c-23 -14 -10 -46 21 -49 31 -4 46 20 27 43 -14 17 -29 19 -48 6z"/>
 <path d="M1255 800 c0 -250 1 -353 2 -228 2 126 2 330 0 455 -1 126 -2 23 -2 -227z"/>
 <path d="M1270 805 l0 -445 110 0 110 0 -2 443 -3 442 -107 3 -108 3 0 -446z"/>
 <path d="M520 1050 l0 -190 330 0 330 0 0 190 0 190 -80 0 -80 0 0 -74 c0 -77 -16 -130 -47 -158 -23 -20 -89 -48 -116 -48 -43 0 -102 26 -139 61 l-38 36 0 91 0 92 -80 0 -80 0 0 -190z"/>
 <path d="M970 605 l0 -245 85 0 85 0 0 245 0 245 -85 0 -85 0 0 -245z"/>
 <path d="M570 670 l0 -171 133 3 132 3 3 168 2 167 -135 0 -135 0 0 -170z"/>
 <path d="M600 431 c107 -77 94 -76 185 -15 l80 54 -160 0 -160 0 55 -39z"/>
 </g>
<g id="layer104" fill="#23c272" stroke="none">
 <path d="M620 1520 l0 -161 33 1 c17 1 43 -2 57 -5 19 -5 31 -1 45 15 17 18 20 37 20 110 0 100 -10 120 -61 120 -33 0 -34 1 -34 40 0 38 -2 40 -30 40 l-30 0 0 -160z m95 -40 c0 -63 -3 -75 -17 -78 -16 -3 -18 6 -18 78 0 72 2 81 18 78 14 -3 17 -15 17 -78z"/>
 <path d="M810 1520 l0 -161 33 1 c17 1 43 -2 57 -5 19 -5 31 -1 45 15 17 18 20 37 20 110 0 100 -10 120 -61 120 -33 0 -34 1 -34 40 0 38 -2 40 -30 40 l-30 0 0 -160z m98 -34 c3 -66 -9 -103 -29 -90 -5 3 -9 41 -9 85 0 71 2 80 18 77 14 -3 18 -16 20 -72z"/>
 <path d="M420 1584 c0 -10 12 -78 27 -151 l28 -133 32 0 c26 0 34 5 38 23 12 54 55 263 55 270 0 4 -13 7 -29 7 -23 0 -30 -5 -33 -22 -5 -34 -55 -38 -60 -6 -4 30 -58 40 -58 12z m99 -121 c-10 -50 -19 -68 -19 -36 0 11 -3 35 -6 52 -6 26 -4 31 13 31 19 0 20 -4 12 -47z"/>
 <path d="M1000 1450 l0 -150 30 0 c29 0 30 1 31 53 l1 52 24 -52 c22 -46 29 -53 55 -53 16 0 29 2 29 4 0 2 -14 34 -31 70 l-31 67 35 80 36 79 -33 0 c-32 0 -35 -3 -59 -62 l-26 -63 -1 63 0 62 -30 0 -30 0 0 -150z"/>
 <path d="M1190 1480 l0 -120 30 0 30 0 0 120 0 120 -30 0 -30 0 0 -120z"/>
 <path d="M1300 1580 c-5 -10 -10 -57 -10 -104 0 -74 3 -89 21 -107 14 -14 29 -19 45 -16 22 4 24 1 24 -34 0 -37 2 -39 30 -39 l30 0 0 159 0 159 -65 1 c-54 0 -66 -3 -75 -19z m80 -99 c0 -83 -13 -111 -30 -66 -20 51 -9 145 16 145 11 0 14 -18 14 -79z"/>
 <path d="M1493 1592 c-7 -4 -16 -22 -19 -40 -6 -29 -4 -32 19 -32 16 0 26 7 30 20 5 20 37 29 37 11 0 -6 -18 -30 -39 -55 -50 -57 -57 -80 -37 -111 36 -54 118 -39 124 23 3 29 0 32 -22 32 -19 0 -26 -5 -26 -19 0 -25 -18 -37 -26 -17 -4 10 9 33 35 62 44 51 53 91 25 118 -16 17 -80 21 -101 8z"/>
 <path d="M1202 1321 c-23 -14 -10 -46 21 -49 31 -4 46 20 27 43 -14 17 -29 19 -48 6z"/>
 <path d="M1282 1238 c-9 -9 -12 -115 -12 -445 l0 -433 105 0 105 0 -2 443 -3 442 -90 3 c-62 2 -94 -1 -103 -10z"/>
 <path d="M520 1050 l0 -190 330 0 330 0 0 190 0 190 -80 0 -80 0 0 -74 c0 -77 -16 -130 -47 -158 -23 -20 -89 -48 -116 -48 -43 0 -102 26 -139 61 l-38 36 0 91 0 92 -80 0 -80 0 0 -190z"/>
 <path d="M970 605 l0 -245 85 0 85 0 -2 243 -3 242 -82 3 -83 3 0 -246z"/>
 <path d="M570 670 l0 -171 133 3 132 3 3 168 2 167 -135 0 -135 0 0 -170z"/>
 <path d="M600 431 c107 -77 94 -76 185 -15 l80 54 -160 0 -160 0 55 -39z"/>
 </g>
<g id="layer105" fill="#ec4c4c" stroke="none">
 <path d="M620 1520 l0 -161 33 1 c17 1 43 -2 57 -5 19 -5 31 -1 45 15 17 18 20 37 20 110 0 100 -10 120 -61 120 -33 0 -34 1 -34 40 0 38 -2 40 -30 40 l-30 0 0 -160z m95 -40 c0 -63 -3 -75 -17 -78 -16 -3 -18 6 -18 78 0 72 2 81 18 78 14 -3 17 -15 17 -78z"/>
 <path d="M810 1520 l0 -161 33 1 c17 1 43 -2 57 -5 19 -5 31 -1 45 15 17 18 20 37 20 110 0 100 -10 120 -61 120 -33 0 -34 1 -34 40 0 38 -2 40 -30 40 l-30 0 0 -160z m98 -34 c3 -66 -9 -103 -29 -90 -5 3 -9 41 -9 85 0 71 2 80 18 77 14 -3 18 -16 20 -72z"/>
 <path d="M420 1584 c0 -10 12 -78 27 -151 l28 -133 32 0 c26 0 34 5 38 23 12 54 55 263 55 270 0 4 -13 7 -29 7 -23 0 -30 -5 -33 -22 -5 -34 -55 -38 -60 -6 -4 30 -58 40 -58 12z m99 -121 c-10 -50 -19 -68 -19 -36 0 11 -3 35 -6 52 -6 26 -4 31 13 31 19 0 20 -4 12 -47z"/>
 <path d="M1000 1450 l0 -150 30 0 c29 0 30 1 31 53 l1 52 24 -52 c22 -46 29 -53 55 -53 16 0 29 2 29 4 0 2 -14 34 -31 70 l-31 67 35 80 36 79 -33 0 c-32 0 -35 -3 -59 -62 l-26 -63 -1 63 0 62 -30 0 -30 0 0 -150z"/>
 <path d="M1190 1480 l0 -120 30 0 30 0 0 120 0 120 -30 0 -30 0 0 -120z"/>
 <path d="M1300 1580 c-5 -10 -10 -57 -10 -104 0 -74 3 -89 21 -107 14 -14 29 -19 45 -16 22 4 24 1 24 -34 0 -37 2 -39 30 -39 l30 0 0 159 0 159 -65 1 c-54 0 -66 -3 -75 -19z m80 -99 c0 -83 -13 -111 -30 -66 -20 51 -9 145 16 145 11 0 14 -18 14 -79z"/>
 <path d="M1493 1592 c-7 -4 -16 -22 -19 -40 -6 -29 -4 -32 19 -32 16 0 26 7 30 20 5 20 37 29 37 11 0 -6 -18 -30 -39 -55 -50 -57 -57 -80 -37 -111 36 -54 118 -39 124 23 3 29 0 32 -22 32 -19 0 -26 -5 -26 -19 0 -25 -18 -37 -26 -17 -4 10 9 33 35 62 44 51 53 91 25 118 -16 17 -80 21 -101 8z"/>
 <path d="M1202 1321 c-23 -14 -10 -46 21 -49 31 -4 46 20 27 43 -14 17 -29 19 -48 6z"/>
 <path d="M1282 1238 c-9 -9 -12 -115 -12 -445 l0 -433 105 0 105 0 -2 443 -3 442 -90 3 c-62 2 -94 -1 -103 -10z"/>
 <path d="M520 1050 l0 -190 330 0 330 0 0 190 0 190 -80 0 -80 0 0 -74 c0 -77 -16 -130 -47 -158 -23 -20 -89 -48 -116 -48 -43 0 -102 26 -139 61 l-38 36 0 91 0 92 -80 0 -80 0 0 -190z"/>
 <path d="M970 605 l0 -245 85 0 85 0 -2 243 -3 242 -82 3 -83 3 0 -246z"/>
 <path d="M600 431 c107 -77 94 -76 185 -15 l80 54 -160 0 -160 0 55 -39z"/>
 </g>
<g id="layer106" fill="#4371fb" stroke="none">
 <path d="M1282 1238 c-9 -9 -12 -115 -12 -445 l0 -433 105 0 105 0 -2 443 -3 442 -90 3 c-62 2 -94 -1 -103 -10z"/>
 <path d="M520 1050 l0 -190 330 0 330 0 0 190 0 190 -80 0 -80 0 0 -74 c0 -77 -16 -130 -47 -158 -23 -20 -89 -48 -116 -48 -43 0 -102 26 -139 61 l-38 36 0 91 0 92 -80 0 -80 0 0 -190z"/>
 <path d="M600 431 c107 -77 94 -76 185 -15 l80 54 -160 0 -160 0 55 -39z"/>
 </g>
<g id="layer107" fill="#e5d80e" stroke="none">
 <path d="M1282 1238 c-9 -9 -12 -115 -12 -445 l0 -433 105 0 105 0 -2 443 -3 442 -90 3 c-62 2 -94 -1 -103 -10z"/>
 <path d="M520 1050 l0 -190 330 0 330 0 0 190 0 190 -80 0 -80 0 0 -74 c0 -77 -16 -130 -47 -158 -23 -20 -89 -48 -116 -48 -43 0 -102 26 -139 61 l-38 36 0 91 0 92 -80 0 -80 0 0 -190z"/>
 </g>
<g id="layer108" fill="#f7a73e" stroke="none">
 <path d="M1282 1238 c-9 -9 -12 -115 -12 -445 l0 -433 105 0 105 0 -2 443 -3 442 -90 3 c-62 2 -94 -1 -103 -10z"/>
 </g>

</svg>