<!DOCTYPE svg PUBLIC "-//W3C//DTD SVG 20010904//EN" "http://www.w3.org/TR/2001/REC-SVG-20010904/DTD/svg10.dtd">
<svg version="1.0" xmlns="http://www.w3.org/2000/svg" width="200px" height="200px" viewBox="0 0 2000 2000" preserveAspectRatio="xMidYMid meet">
<g id="layer101" fill="#000000" stroke="none">
 <path d="M480 1685 l0 -215 30 0 c17 0 30 5 30 10 0 7 6 7 19 0 32 -17 76 -12 97 11 17 18 19 37 19 144 0 108 -2 125 -20 145 -16 17 -28 21 -62 18 l-43 -3 0 52 0 53 -35 0 -35 0 0 -215z m121 38 c14 -36 8 -178 -8 -194 -9 -9 -16 -9 -28 1 -12 10 -15 34 -15 110 0 53 3 100 7 103 14 15 34 6 44 -20z"/>
 <path d="M730 1685 l0 -215 30 0 c21 0 30 5 30 17 0 15 1 15 18 0 23 -21 76 -22 96 -1 24 24 31 60 30 165 0 129 -14 152 -85 147 l-49 -3 0 53 0 52 -35 0 -35 0 0 -215z m124 49 c10 -25 7 -188 -4 -204 -7 -12 -13 -12 -27 -4 -15 9 -19 28 -21 104 -3 92 5 120 33 120 7 0 16 -7 19 -16z"/>
 <path d="M200 1790 c0 -11 69 -346 76 -372 4 -14 16 -18 47 -18 l43 0 41 200 40 200 -38 0 c-36 0 -39 -2 -45 -36 -6 -33 -8 -35 -43 -32 -33 3 -36 6 -39 36 -3 30 -6 32 -43 32 -21 0 -39 -4 -39 -10z m147 -132 c-3 -13 -9 -47 -13 -77 -8 -65 -20 -51 -30 37 l-7 62 28 0 c23 0 26 -3 22 -22z"/>
 <path d="M990 1600 l0 -200 35 0 35 0 1 78 1 77 36 -77 c35 -78 35 -78 74 -78 l38 0 -14 33 c-8 17 -26 60 -41 93 l-27 61 42 94 c23 52 44 100 47 107 4 10 -5 13 -37 10 l-43 -3 -36 -85 -36 -85 -3 88 -3 87 -34 0 -35 0 0 -200z"/>
 <path d="M1240 1635 l0 -165 40 0 40 0 0 165 0 165 -40 0 -40 0 0 -165z"/>
 <path d="M1394 1778 c-16 -17 -19 -37 -19 -145 0 -121 1 -125 25 -145 18 -15 34 -19 62 -15 l38 5 0 -54 0 -54 35 0 35 0 0 214 0 214 -79 0 c-67 1 -82 -2 -97 -20z m104 -134 c2 -82 0 -103 -13 -114 -26 -22 -38 2 -43 87 -4 88 8 136 36 131 15 -3 17 -17 20 -104z"/>
 <path d="M1640 1780 c-12 -12 -20 -33 -20 -55 0 -32 2 -35 30 -35 22 0 30 5 30 18 0 35 42 57 53 28 3 -8 -16 -37 -42 -67 -80 -90 -90 -131 -45 -176 22 -22 32 -25 75 -21 57 6 80 27 76 73 -2 25 -7 31 -29 33 -22 3 -28 -1 -28 -16 0 -23 -25 -46 -40 -37 -19 12 -10 36 34 83 53 57 66 82 66 121 0 47 -30 71 -90 71 -37 0 -55 -5 -70 -20z"/>
 <path d="M1247 1423 c-11 -11 -8 -48 5 -61 17 -17 53 -15 68 3 7 8 10 25 6 40 -5 20 -12 25 -40 25 -18 0 -36 -3 -39 -7z"/>
 <path d="M295 1337 c-3 -7 -4 -134 -3 -282 l3 -270 33 -3 32 -3 0 -229 0 -229 -32 -3 c-21 -2 -33 -8 -33 -18 0 -16 262 -200 285 -200 24 1 285 184 285 200 0 10 -12 16 -32 18 l-33 3 0 230 0 229 50 0 50 0 2 -337 3 -338 148 -3 147 -3 0 341 0 340 30 0 30 0 0 285 0 286 -142 -3 -143 -3 -5 -120 c-6 -139 -18 -170 -82 -213 -36 -23 -52 -27 -113 -27 -61 0 -78 4 -112 27 -65 43 -83 92 -83 226 l0 112 -140 0 c-104 0 -142 -3 -145 -13z"/>
 <path d="M1315 1338 c-3 -7 -4 -287 -3 -623 l3 -610 173 -3 172 -2 0 625 0 625 -170 0 c-127 0 -172 -3 -175 -12z"/>
 </g>
<g id="layer102" fill="#7f2525" stroke="none">
 <path d="M480 1685 l0 -215 30 0 c17 0 30 5 30 10 0 7 6 7 19 0 32 -17 76 -12 97 11 17 18 19 37 19 144 0 108 -2 125 -20 145 -16 17 -28 21 -62 18 l-43 -3 0 52 0 53 -35 0 -35 0 0 -215z m121 38 c14 -36 8 -178 -8 -194 -9 -9 -16 -9 -28 1 -12 10 -15 34 -15 110 0 53 3 100 7 103 14 15 34 6 44 -20z"/>
 <path d="M730 1685 l0 -215 30 0 c21 0 30 5 30 17 0 15 1 15 18 0 23 -21 76 -22 96 -1 24 24 31 60 30 165 0 129 -14 152 -85 147 l-49 -3 0 53 0 52 -35 0 -35 0 0 -215z m124 49 c10 -25 7 -188 -4 -204 -7 -12 -13 -12 -27 -4 -15 9 -19 28 -21 104 -3 92 5 120 33 120 7 0 16 -7 19 -16z"/>
 <path d="M200 1790 c0 -11 69 -346 76 -372 4 -14 16 -18 47 -18 l43 0 41 200 40 200 -38 0 c-36 0 -39 -2 -45 -36 -6 -33 -8 -35 -43 -32 -33 3 -36 6 -39 36 -3 30 -6 32 -43 32 -21 0 -39 -4 -39 -10z m147 -132 c-3 -13 -9 -47 -13 -77 -8 -65 -20 -51 -30 37 l-7 62 28 0 c23 0 26 -3 22 -22z"/>
 <path d="M990 1600 l0 -200 35 0 35 0 1 78 1 77 36 -77 c35 -78 35 -78 74 -78 l38 0 -14 33 c-8 17 -26 60 -41 93 l-27 61 42 94 c23 52 44 100 47 107 4 10 -5 13 -37 10 l-43 -3 -36 -85 -36 -85 -3 88 -3 87 -34 0 -35 0 0 -200z"/>
 <path d="M1240 1635 l0 -165 40 0 40 0 0 165 0 165 -40 0 -40 0 0 -165z"/>
 <path d="M1394 1778 c-16 -17 -19 -37 -19 -145 0 -121 1 -125 25 -145 18 -15 34 -19 62 -15 l38 5 0 -54 0 -54 35 0 35 0 0 214 0 214 -79 0 c-67 1 -82 -2 -97 -20z m104 -134 c2 -82 0 -103 -13 -114 -26 -22 -38 2 -43 87 -4 88 8 136 36 131 15 -3 17 -17 20 -104z"/>
 <path d="M1640 1780 c-12 -12 -20 -33 -20 -55 0 -32 2 -35 30 -35 22 0 30 5 30 18 0 35 42 57 53 28 3 -8 -16 -37 -42 -67 -80 -90 -90 -131 -45 -176 22 -22 32 -25 75 -21 57 6 80 27 76 73 -2 25 -7 31 -29 33 -22 3 -28 -1 -28 -16 0 -23 -25 -46 -40 -37 -19 12 -10 36 34 83 53 57 66 82 66 121 0 47 -30 71 -90 71 -37 0 -55 -5 -70 -20z"/>
 <path d="M1247 1423 c-11 -11 -8 -48 5 -61 17 -17 53 -15 68 3 7 8 10 25 6 40 -5 20 -12 25 -40 25 -18 0 -36 -3 -39 -7z"/>
 <path d="M330 1060 l0 -260 445 0 445 0 0 260 0 260 -110 0 -110 0 0 -109 c0 -115 -10 -154 -52 -202 -27 -31 -117 -69 -163 -69 -80 0 -189 60 -221 122 -10 19 -14 63 -14 143 l0 115 -110 0 -110 0 0 -260z"/>
 <path d="M1350 725 l0 -595 140 0 140 0 0 595 0 595 -140 0 -140 0 0 -595z"/>
 <path d="M940 460 l0 -330 110 0 110 0 0 330 0 330 -110 0 -110 0 0 -330z"/>
 <path d="M400 545 l0 -235 180 0 180 0 0 235 0 235 -180 0 -180 0 0 -235z"/>
 <path d="M370 282 c0 -9 195 -142 209 -142 16 0 211 131 211 142 0 4 -94 8 -210 8 -116 0 -210 -3 -210 -8z"/>
 </g>
<g id="layer103" fill="#137c47" stroke="none">
 <path d="M480 1685 l0 -215 30 0 c17 0 30 5 30 10 0 7 6 7 19 0 32 -17 76 -12 97 11 17 18 19 37 19 144 0 108 -2 125 -20 145 -16 17 -28 21 -62 18 l-43 -3 0 52 0 53 -35 0 -35 0 0 -215z m121 38 c14 -36 8 -178 -8 -194 -9 -9 -16 -9 -28 1 -12 10 -15 34 -15 110 0 53 3 100 7 103 14 15 34 6 44 -20z"/>
 <path d="M730 1685 l0 -215 30 0 c21 0 30 5 30 17 0 15 1 15 18 0 23 -21 76 -22 96 -1 24 24 31 60 30 165 0 129 -14 152 -85 147 l-49 -3 0 53 0 52 -35 0 -35 0 0 -215z m124 49 c10 -25 7 -188 -4 -204 -7 -12 -13 -12 -27 -4 -15 9 -19 28 -21 104 -3 92 5 120 33 120 7 0 16 -7 19 -16z"/>
 <path d="M200 1790 c0 -11 69 -346 76 -372 4 -14 16 -18 47 -18 l43 0 41 200 40 200 -38 0 c-36 0 -39 -2 -45 -36 -6 -33 -8 -35 -43 -32 -33 3 -36 6 -39 36 -3 30 -6 32 -43 32 -21 0 -39 -4 -39 -10z m147 -132 c-3 -13 -9 -47 -13 -77 -8 -65 -20 -51 -30 37 l-7 62 28 0 c23 0 26 -3 22 -22z"/>
 <path d="M990 1600 l0 -200 35 0 35 0 1 78 1 77 36 -77 c35 -78 35 -78 74 -78 l38 0 -14 33 c-8 17 -26 60 -41 93 l-27 61 42 94 c23 52 44 100 47 107 4 10 -5 13 -37 10 l-43 -3 -36 -85 -36 -85 -3 88 -3 87 -34 0 -35 0 0 -200z"/>
 <path d="M1240 1635 l0 -165 40 0 40 0 0 165 0 165 -40 0 -40 0 0 -165z"/>
 <path d="M1394 1778 c-16 -17 -19 -37 -19 -145 0 -121 1 -125 25 -145 18 -15 34 -19 62 -15 l38 5 0 -54 0 -54 35 0 35 0 0 214 0 214 -79 0 c-67 1 -82 -2 -97 -20z m104 -134 c2 -82 0 -103 -13 -114 -26 -22 -38 2 -43 87 -4 88 8 136 36 131 15 -3 17 -17 20 -104z"/>
 <path d="M1640 1780 c-12 -12 -20 -33 -20 -55 0 -32 2 -35 30 -35 22 0 30 5 30 18 0 35 42 57 53 28 3 -8 -16 -37 -42 -67 -80 -90 -90 -131 -45 -176 22 -22 32 -25 75 -21 57 6 80 27 76 73 -2 25 -7 31 -29 33 -22 3 -28 -1 -28 -16 0 -23 -25 -46 -40 -37 -19 12 -10 36 34 83 53 57 66 82 66 121 0 47 -30 71 -90 71 -37 0 -55 -5 -70 -20z"/>
 <path d="M1247 1423 c-11 -11 -8 -48 5 -61 17 -17 53 -15 68 3 7 8 10 25 6 40 -5 20 -12 25 -40 25 -18 0 -36 -3 -39 -7z"/>
 <path d="M330 1060 l0 -260 445 0 445 0 0 260 0 260 -110 0 -110 0 0 -109 c0 -115 -10 -154 -52 -202 -27 -31 -117 -69 -163 -69 -80 0 -189 60 -221 122 -10 19 -14 63 -14 143 l0 115 -110 0 -110 0 0 -260z"/>
 <path d="M1350 725 l0 -595 140 0 140 0 0 595 0 595 -140 0 -140 0 0 -595z"/>
 <path d="M400 545 l0 -235 180 0 180 0 0 235 0 235 -180 0 -180 0 0 -235z"/>
 <path d="M940 455 l0 -325 110 0 110 0 0 325 0 325 -110 0 -110 0 0 -325z"/>
 <path d="M370 282 c0 -9 195 -142 209 -142 16 0 211 131 211 142 0 4 -94 8 -210 8 -116 0 -210 -3 -210 -8z"/>
 </g>
<g id="layer104" fill="#2c4cae" stroke="none">
 <path d="M480 1685 l0 -215 30 0 c17 0 30 5 30 10 0 7 6 7 19 0 32 -17 76 -12 97 11 17 18 19 37 19 144 0 108 -2 125 -20 145 -16 17 -28 21 -62 18 l-43 -3 0 52 0 53 -35 0 -35 0 0 -215z m121 38 c14 -36 8 -178 -8 -194 -9 -9 -16 -9 -28 1 -12 10 -15 34 -15 110 0 53 3 100 7 103 14 15 34 6 44 -20z"/>
 <path d="M730 1685 l0 -215 30 0 c21 0 30 5 30 17 0 15 1 15 18 0 23 -21 76 -22 96 -1 24 24 31 60 30 165 0 129 -14 152 -85 147 l-49 -3 0 53 0 52 -35 0 -35 0 0 -215z m124 49 c10 -25 7 -188 -4 -204 -7 -12 -13 -12 -27 -4 -15 9 -19 28 -21 104 -3 92 5 120 33 120 7 0 16 -7 19 -16z"/>
 <path d="M200 1790 c0 -11 69 -346 76 -372 4 -14 16 -18 47 -18 l43 0 41 200 40 200 -38 0 c-36 0 -39 -2 -45 -36 -6 -33 -8 -35 -43 -32 -33 3 -36 6 -39 36 -3 30 -6 32 -43 32 -21 0 -39 -4 -39 -10z m147 -132 c-3 -13 -9 -47 -13 -77 -8 -65 -20 -51 -30 37 l-7 62 28 0 c23 0 26 -3 22 -22z"/>
 <path d="M990 1600 l0 -200 35 0 35 0 1 78 1 77 36 -77 c35 -78 35 -78 74 -78 l38 0 -14 33 c-8 17 -26 60 -41 93 l-27 61 42 94 c23 52 44 100 47 107 4 10 -5 13 -37 10 l-43 -3 -36 -85 -36 -85 -3 88 -3 87 -34 0 -35 0 0 -200z"/>
 <path d="M1240 1635 l0 -165 40 0 40 0 0 165 0 165 -40 0 -40 0 0 -165z"/>
 <path d="M1394 1778 c-16 -17 -19 -37 -19 -145 0 -121 1 -125 25 -145 18 -15 34 -19 62 -15 l38 5 0 -54 0 -54 35 0 35 0 0 214 0 214 -79 0 c-67 1 -82 -2 -97 -20z m104 -134 c2 -82 0 -103 -13 -114 -26 -22 -38 2 -43 87 -4 88 8 136 36 131 15 -3 17 -17 20 -104z"/>
 <path d="M1640 1780 c-12 -12 -20 -33 -20 -55 0 -32 2 -35 30 -35 22 0 30 5 30 18 0 35 42 57 53 28 3 -8 -16 -37 -42 -67 -80 -90 -90 -131 -45 -176 22 -22 32 -25 75 -21 57 6 80 27 76 73 -2 25 -7 31 -29 33 -22 3 -28 -1 -28 -16 0 -23 -25 -46 -40 -37 -19 12 -10 36 34 83 53 57 66 82 66 121 0 47 -30 71 -90 71 -37 0 -55 -5 -70 -20z"/>
 <path d="M1247 1423 c-11 -11 -8 -48 5 -61 17 -17 53 -15 68 3 7 8 10 25 6 40 -5 20 -12 25 -40 25 -18 0 -36 -3 -39 -7z"/>
 <path d="M330 1060 l0 -260 445 0 445 0 0 260 0 260 -110 0 -110 0 0 -109 c0 -115 -10 -154 -52 -202 -27 -31 -117 -69 -163 -69 -80 0 -189 60 -221 122 -10 19 -14 63 -14 143 l0 115 -110 0 -110 0 0 -260z"/>
 <path d="M1350 725 l0 -595 140 0 140 0 0 595 0 595 -140 0 -140 0 0 -595z"/>
 <path d="M400 550 l0 -230 180 0 180 0 0 230 0 230 -180 0 -180 0 0 -230z"/>
 <path d="M940 455 l0 -325 110 0 110 0 0 325 0 325 -110 0 -110 0 0 -325z"/>
 <path d="M370 283 c1 -10 197 -143 211 -143 14 0 209 133 209 142 0 5 -94 8 -210 8 -116 0 -210 -3 -210 -7z"/>
 </g>
<g id="layer105" fill="#23c272" stroke="none">
 <path d="M480 1685 l0 -215 30 0 c17 0 30 5 30 10 0 7 6 7 19 0 32 -17 76 -12 97 11 17 18 19 37 19 144 0 108 -2 125 -20 145 -16 17 -28 21 -62 18 l-43 -3 0 52 0 53 -35 0 -35 0 0 -215z m121 38 c14 -36 8 -178 -8 -194 -9 -9 -16 -9 -28 1 -12 10 -15 34 -15 110 0 53 3 100 7 103 14 15 34 6 44 -20z"/>
 <path d="M730 1685 l0 -215 30 0 c21 0 30 5 30 17 0 15 1 15 18 0 23 -21 76 -22 96 -1 24 24 31 60 30 165 0 129 -14 152 -85 147 l-49 -3 0 53 0 52 -35 0 -35 0 0 -215z m124 49 c10 -25 7 -188 -4 -204 -7 -12 -13 -12 -27 -4 -15 9 -19 28 -21 104 -3 92 5 120 33 120 7 0 16 -7 19 -16z"/>
 <path d="M200 1790 c0 -11 69 -346 76 -372 4 -14 16 -18 47 -18 l43 0 41 200 40 200 -38 0 c-36 0 -39 -2 -45 -36 -6 -33 -8 -35 -43 -32 -33 3 -36 6 -39 36 -3 30 -6 32 -43 32 -21 0 -39 -4 -39 -10z m147 -132 c-3 -13 -9 -47 -13 -77 -8 -65 -20 -51 -30 37 l-7 62 28 0 c23 0 26 -3 22 -22z"/>
 <path d="M990 1600 l0 -200 35 0 35 0 1 78 1 77 36 -77 c35 -78 35 -78 74 -78 l38 0 -14 33 c-8 17 -26 60 -41 93 l-27 61 42 94 c23 52 44 100 47 107 4 10 -5 13 -37 10 l-43 -3 -36 -85 -36 -85 -3 88 -3 87 -34 0 -35 0 0 -200z"/>
 <path d="M1240 1635 l0 -165 40 0 40 0 0 165 0 165 -40 0 -40 0 0 -165z"/>
 <path d="M1394 1778 c-16 -17 -19 -37 -19 -145 0 -121 1 -125 25 -145 18 -15 34 -19 62 -15 l38 5 0 -54 0 -54 35 0 35 0 0 214 0 214 -79 0 c-67 1 -82 -2 -97 -20z m104 -134 c2 -82 0 -103 -13 -114 -26 -22 -38 2 -43 87 -4 88 8 136 36 131 15 -3 17 -17 20 -104z"/>
 <path d="M1640 1780 c-12 -12 -20 -33 -20 -55 0 -32 2 -35 30 -35 22 0 30 5 30 18 0 35 42 57 53 28 3 -8 -16 -37 -42 -67 -80 -90 -90 -131 -45 -176 22 -22 32 -25 75 -21 57 6 80 27 76 73 -2 25 -7 31 -29 33 -22 3 -28 -1 -28 -16 0 -23 -25 -46 -40 -37 -19 12 -10 36 34 83 53 57 66 82 66 121 0 47 -30 71 -90 71 -37 0 -55 -5 -70 -20z"/>
 <path d="M1247 1423 c-11 -11 -8 -48 5 -61 17 -17 53 -15 68 3 7 8 10 25 6 40 -5 20 -12 25 -40 25 -18 0 -36 -3 -39 -7z"/>
 <path d="M330 1060 l0 -260 445 0 445 0 0 260 0 260 -110 0 -110 0 0 -109 c0 -115 -10 -154 -52 -202 -27 -31 -117 -69 -163 -69 -80 0 -189 60 -221 122 -10 19 -14 63 -14 143 l0 115 -110 0 -110 0 0 -260z"/>
 <path d="M1350 725 l0 -595 140 0 140 0 0 595 0 595 -140 0 -140 0 0 -595z"/>
 <path d="M400 550 l0 -230 180 0 180 0 0 230 0 230 -180 0 -180 0 0 -230z"/>
 <path d="M940 455 l0 -325 110 0 110 0 0 325 0 325 -110 0 -110 0 0 -325z"/>
 <path d="M386 281 c-3 -4 39 -38 94 -75 l100 -66 100 67 c69 45 97 69 88 75 -17 11 -375 10 -382 -1z"/>
 </g>
<g id="layer106" fill="#ec4c4c" stroke="none">
 <path d="M480 1685 l0 -215 30 0 c17 0 30 5 30 10 0 7 6 7 19 0 32 -17 76 -12 97 11 17 18 19 37 19 144 0 108 -2 125 -20 145 -16 17 -28 21 -62 18 l-43 -3 0 52 0 53 -35 0 -35 0 0 -215z m121 38 c14 -36 8 -178 -8 -194 -9 -9 -16 -9 -28 1 -12 10 -15 34 -15 110 0 53 3 100 7 103 14 15 34 6 44 -20z"/>
 <path d="M730 1685 l0 -215 30 0 c21 0 30 5 30 17 0 15 1 15 18 0 23 -21 76 -22 96 -1 24 24 31 60 30 165 0 129 -14 152 -85 147 l-49 -3 0 53 0 52 -35 0 -35 0 0 -215z m124 49 c10 -25 7 -188 -4 -204 -7 -12 -13 -12 -27 -4 -15 9 -19 28 -21 104 -3 92 5 120 33 120 7 0 16 -7 19 -16z"/>
 <path d="M200 1790 c0 -11 69 -346 76 -372 4 -14 16 -18 47 -18 l43 0 41 200 40 200 -38 0 c-36 0 -39 -2 -45 -36 -6 -33 -8 -35 -43 -32 -33 3 -36 6 -39 36 -3 30 -6 32 -43 32 -21 0 -39 -4 -39 -10z m147 -132 c-3 -13 -9 -47 -13 -77 -8 -65 -20 -51 -30 37 l-7 62 28 0 c23 0 26 -3 22 -22z"/>
 <path d="M990 1600 l0 -200 35 0 35 0 1 78 1 77 36 -77 c35 -78 35 -78 74 -78 l38 0 -14 33 c-8 17 -26 60 -41 93 l-27 61 42 94 c23 52 44 100 47 107 4 10 -5 13 -37 10 l-43 -3 -36 -85 -36 -85 -3 88 -3 87 -34 0 -35 0 0 -200z"/>
 <path d="M1240 1635 l0 -165 40 0 40 0 0 165 0 165 -40 0 -40 0 0 -165z"/>
 <path d="M1394 1778 c-16 -17 -19 -37 -19 -145 0 -121 1 -125 25 -145 18 -15 34 -19 62 -15 l38 5 0 -54 0 -54 35 0 35 0 0 214 0 214 -79 0 c-67 1 -82 -2 -97 -20z m104 -134 c2 -82 0 -103 -13 -114 -26 -22 -38 2 -43 87 -4 88 8 136 36 131 15 -3 17 -17 20 -104z"/>
 <path d="M1640 1780 c-12 -12 -20 -33 -20 -55 0 -32 2 -35 30 -35 22 0 30 5 30 18 0 35 42 57 53 28 3 -8 -16 -37 -42 -67 -80 -90 -90 -131 -45 -176 22 -22 32 -25 75 -21 57 6 80 27 76 73 -2 25 -7 31 -29 33 -22 3 -28 -1 -28 -16 0 -23 -25 -46 -40 -37 -19 12 -10 36 34 83 53 57 66 82 66 121 0 47 -30 71 -90 71 -37 0 -55 -5 -70 -20z"/>
 <path d="M1247 1423 c-11 -11 -8 -48 5 -61 17 -17 53 -15 68 3 7 8 10 25 6 40 -5 20 -12 25 -40 25 -18 0 -36 -3 -39 -7z"/>
 <path d="M330 1060 l0 -260 445 0 445 0 0 260 0 260 -110 0 -110 0 0 -109 c0 -115 -10 -154 -52 -202 -27 -31 -117 -69 -163 -69 -80 0 -189 60 -221 122 -10 19 -14 63 -14 143 l0 115 -110 0 -110 0 0 -260z"/>
 <path d="M1350 725 l0 -595 140 0 140 0 0 595 0 595 -140 0 -140 0 0 -595z"/>
 <path d="M940 455 l0 -325 110 0 110 0 0 325 0 325 -110 0 -110 0 0 -325z"/>
 <path d="M386 281 c-3 -4 39 -38 94 -75 l100 -66 100 67 c69 45 97 69 88 75 -17 11 -375 10 -382 -1z"/>
 </g>
<g id="layer107" fill="#4573ff" stroke="none">
 <path d="M330 1060 l0 -260 445 0 445 0 0 260 0 260 -110 0 -110 0 0 -109 c0 -115 -10 -154 -52 -202 -27 -31 -117 -69 -163 -69 -80 0 -189 60 -221 122 -10 19 -14 63 -14 143 l0 115 -110 0 -110 0 0 -260z"/>
 <path d="M1350 725 l0 -595 140 0 140 0 0 595 0 595 -140 0 -140 0 0 -595z"/>
 <path d="M386 281 c-3 -4 39 -38 94 -75 l100 -66 100 67 c69 45 97 69 88 75 -17 11 -375 10 -382 -1z"/>
 </g>
<g id="layer108" fill="#e5d80e" stroke="none">
 <path d="M330 1060 l0 -260 445 0 445 0 0 260 0 260 -110 0 -110 0 0 -109 c0 -115 -10 -154 -52 -202 -27 -31 -117 -69 -163 -69 -80 0 -189 60 -221 122 -10 19 -14 63 -14 143 l0 115 -110 0 -110 0 0 -260z"/>
 <path d="M1350 725 l0 -595 140 0 140 0 0 595 0 595 -140 0 -140 0 0 -595z"/>
 </g>
<g id="layer109" fill="#f4a53d" stroke="none">
 <path d="M1350 725 l0 -595 140 0 140 0 0 595 0 595 -140 0 -140 0 0 -595z"/>
 </g>

</svg>